<svg xmlns:xlink="http://www.w3.org/1999/xlink" width="24" height="24" viewBox="0 0 24 24" fill="none" xmlns="http://www.w3.org/2000/svg"><path d="M19 4h-4V3a3 3 0 0 0-6 0v1H5a5 5 0 0 0-5 5v10a5 5 0 0 0 5 5h14a5 5 0 0 0 5-5V9a5 5 0 0 0-5-5Zm-8-1a1 1 0 0 1 2 0v2a1 1 0 0 1-2 0V3Zm11 16a3 3 0 0 1-3 3H5a3 3 0 0 1-3-3V9a3 3 0 0 1 3-3h4.18a2.98 2.98 0 0 0 5.64 0H19a3 3 0 0 1 3 3v10Zm-12-9H5a1 1 0 0 0-1 1v8a1 1 0 0 0 1 1h5a1 1 0 0 0 1-1v-8a1 1 0 0 0-1-1Zm-1 8H6v-6h3v6Zm11-3a1 1 0 0 1-1 1h-5a1 1 0 0 1 0-2h5a1 1 0 0 1 1 1Zm0-4a1 1 0 0 1-1 1h-5a1 1 0 0 1 0-2h5a1 1 0 0 1 1 1Zm-2 8a1 1 0 0 1-1 1h-3a1 1 0 0 1 0-2h3a1 1 0 0 1 1 1Z" fill="var(--id-badge-icon-color, currentColor)"></path></svg>