<svg xmlns:xlink="http://www.w3.org/1999/xlink" width="24" height="24" viewBox="0 0 24 24" fill="none" xmlns="http://www.w3.org/2000/svg"><g clip-path="url(#id1)" fill="none"><path d="M19 1H5a5 5 0 0 0-5 5v12a5 5 0 0 0 5 5h14a5 5 0 0 0 5-5V6a5 5 0 0 0-5-5ZM5 3h14a3 3 0 0 1 2.78 1.89l-7.66 7.66a3 3 0 0 1-4.24 0L2.22 4.89A3 3 0 0 1 5 3Zm14 18H5a3 3 0 0 1-3-3V7.5l6.46 6.46a5 5 0 0 0 7.08 0L22 7.5V18a3 3 0 0 1-3 3Z" fill="var(--envelope-icon-color, currentColor)"></path></g><defs><clipPath id="id1"><path fill="#fff" d="M0 0h24v24H0z"></path></clipPath></defs></svg>